<svg width="24" height="24" viewBox="0 0 24 24" fill="none" xmlns="http://www.w3.org/2000/svg">
<path d="M12 13.5555L14.674 16.2293C14.8855 16.4409 15.1447 16.5444 15.4515 16.5398C15.7585 16.5349 16.0178 16.4268 16.2293 16.2153C16.4409 16.0036 16.5468 15.7444 16.5468 15.4375C16.5468 15.1307 16.4409 14.8714 16.2293 14.6598L13.5555 12L16.2293 9.32603C16.4409 9.11453 16.5468 8.85536 16.5468 8.54853C16.5468 8.24153 16.4409 7.98228 16.2293 7.77078C16.0178 7.55911 15.7585 7.45328 15.4515 7.45328C15.1447 7.45328 14.8855 7.55911 14.674 7.77078L12 10.4445L9.32603 7.77078C9.11453 7.55911 8.8577 7.45328 8.55553 7.45328C8.25337 7.45328 7.99645 7.55911 7.78478 7.77078C7.57328 7.98228 7.46753 8.24153 7.46753 8.54853C7.46753 8.85536 7.57328 9.11453 7.78478 9.32603L10.4445 12L7.77078 14.674C7.55911 14.8855 7.45561 15.1424 7.46028 15.4445C7.46511 15.7467 7.57328 16.0036 7.78478 16.2153C7.99645 16.4268 8.2557 16.5325 8.56253 16.5325C8.86936 16.5325 9.12861 16.4268 9.34028 16.2153L12 13.5555ZM12 22.4805C10.5414 22.4805 9.17545 22.2063 7.90228 21.6578C6.62911 21.1091 5.52128 20.3636 4.57878 19.4213C3.63645 18.4788 2.89095 17.3709 2.34228 16.0978C1.79378 14.8246 1.51953 13.4587 1.51953 12C1.51953 10.5414 1.79378 9.17545 2.34228 7.90228C2.89095 6.62911 3.63645 5.52128 4.57878 4.57878C5.52128 3.63645 6.62911 2.89095 7.90228 2.34228C9.17545 1.79378 10.5414 1.51953 12 1.51953C13.4587 1.51953 14.8246 1.79378 16.0978 2.34228C17.3709 2.89095 18.4788 3.63645 19.4213 4.57878C20.3636 5.52128 21.1091 6.62911 21.6578 7.90228C22.2063 9.17545 22.4805 10.5414 22.4805 12C22.4805 13.4587 22.2063 14.8246 21.6578 16.0978C21.1091 17.3709 20.3636 18.4788 19.4213 19.4213C18.4788 20.3636 17.3709 21.1091 16.0978 21.6578C14.8246 22.2063 13.4587 22.4805 12 22.4805ZM12 19.8305C14.1957 19.8305 16.0497 19.0744 17.562 17.562C19.0744 16.0497 19.8305 14.1957 19.8305 12C19.8305 9.80436 19.0744 7.95036 17.562 6.43803C16.0497 4.9257 14.1957 4.16953 12 4.16953C9.80437 4.16953 7.95036 4.9257 6.43803 6.43803C4.9257 7.95036 4.16953 9.80436 4.16953 12C4.16953 14.1957 4.9257 16.0497 6.43803 17.562C7.95036 19.0744 9.80437 19.8305 12 19.8305Z" fill="currentColor" />
</svg>
