<svg width="24" height="24" viewBox="0 0 24 24" fill="none" xmlns="http://www.w3.org/2000/svg">
<path d="M12 13.8522L7.32598 18.526C7.07681 18.7753 6.76814 18.9 6.39998 18.9C6.03181 18.9 5.72314 18.7753 5.47398 18.526C5.22464 18.2768 5.09998 17.9681 5.09998 17.6C5.09998 17.2318 5.22464 16.9231 5.47398 16.674L10.1477 12L5.47398 7.32598C5.22464 7.07681 5.09998 6.76814 5.09998 6.39998C5.09998 6.03181 5.22464 5.72314 5.47398 5.47398C5.72314 5.22464 6.03181 5.09998 6.39998 5.09998C6.76814 5.09998 7.07681 5.22464 7.32598 5.47398L12 10.1477L16.674 5.47398C16.9231 5.22464 17.2318 5.09998 17.6 5.09998C17.9681 5.09998 18.2768 5.22464 18.526 5.47398C18.7753 5.72314 18.9 6.03181 18.9 6.39998C18.9 6.76814 18.7753 7.07681 18.526 7.32598L13.8522 12L18.526 16.674C18.7753 16.9231 18.9 17.2318 18.9 17.6C18.9 17.9681 18.7753 18.2768 18.526 18.526C18.2768 18.7753 17.9681 18.9 17.6 18.9C17.2318 18.9 16.9231 18.7753 16.674 18.526L12 13.8522Z" fill="currentColor" />
</svg>
