<svg width="24" height="24" viewBox="0 0 24 24" fill="none" xmlns="http://www.w3.org/2000/svg">
<path d="M12 22.325C10.5757 22.325 9.23722 22.0531 7.98455 21.5093C6.73188 20.9655 5.63905 20.2271 4.70605 19.2941C3.77305 18.361 3.03463 17.2682 2.4908 16.0155C1.94697 14.7629 1.67505 13.4244 1.67505 12C1.67505 10.5757 1.94697 9.23722 2.4908 7.98455C3.03463 6.73188 3.77305 5.63905 4.70605 4.70605C5.63905 3.77305 6.73188 3.03463 7.98455 2.4908C9.23722 1.94697 10.5757 1.67505 12 1.67505C13.4244 1.67505 14.7629 1.94697 16.0155 2.4908C17.2682 3.03463 18.361 3.77305 19.2941 4.70605C20.2271 5.63905 20.9655 6.73188 21.5093 7.98455C22.0531 9.23722 22.325 10.5757 22.325 12C22.325 13.4244 22.0531 14.7629 21.5093 16.0155C20.9655 17.2682 20.2271 18.361 19.2941 19.2941C18.361 20.2271 17.2682 20.9655 16.0155 21.5093C14.7629 22.0531 13.4244 22.325 12 22.325ZM12 19.887C14.1957 19.887 16.0591 19.1215 17.5903 17.5903C19.1215 16.0591 19.887 14.1957 19.887 12C19.887 9.80438 19.1215 7.94097 17.5903 6.4098C16.0591 4.87863 14.1957 4.11305 12 4.11305C9.80438 4.11305 7.94097 4.87863 6.4098 6.4098C4.87863 7.94097 4.11305 9.80438 4.11305 12C4.11305 14.1957 4.87863 16.0591 6.4098 17.5903C7.94097 19.1215 9.80438 19.887 12 19.887Z" fill="currentColor" />
</svg>
