<svg width="24" height="24" viewBox="0 0 24 24" fill="none" xmlns="http://www.w3.org/2000/svg">
<path d="M15.175 8.32496C15.5265 8.67646 15.8076 9.08754 16.0185 9.55821C16.2293 10.0287 16.3532 10.5136 16.3902 11.013C16.3902 11.329 16.2797 11.5956 16.0587 11.813C15.8377 12.0303 15.5692 12.139 15.2532 12.139C14.9372 12.139 14.6706 12.0303 14.4532 11.813C14.2359 11.5956 14.1272 11.329 14.1272 11.013C14.1822 10.7586 14.1713 10.5186 14.0945 10.293C14.0176 10.0671 13.8941 9.86912 13.724 9.69896C13.5536 9.52862 13.3556 9.39904 13.13 9.31021C12.9041 9.22154 12.6557 9.20471 12.3847 9.25971C12.0877 9.25971 11.8329 9.14921 11.6202 8.92821C11.4074 8.70721 11.301 8.44812 11.301 8.15096C11.301 7.85396 11.4074 7.59912 11.6202 7.38646C11.8329 7.17379 12.0877 7.06746 12.3847 7.06746C12.8956 7.08546 13.3887 7.19996 13.8642 7.41096C14.3396 7.62179 14.7765 7.92646 15.175 8.32496ZM12 5.99996C11.7681 5.99996 11.5422 6.00771 11.3222 6.02321C11.1024 6.03887 10.8801 6.06587 10.6555 6.10421C10.3156 6.14487 10.0026 6.07971 9.71623 5.90871C9.43006 5.73771 9.24056 5.48587 9.14773 5.15321C9.05506 4.82054 9.09606 4.51037 9.27073 4.22271C9.44523 3.93504 9.69881 3.76621 10.0315 3.71621C10.3583 3.66121 10.6846 3.62171 11.0102 3.59771C11.3361 3.57387 11.666 3.56196 12 3.56196C14.3493 3.56196 16.5027 4.18312 18.4602 5.42546C20.4179 6.66779 21.9109 8.34804 22.9392 10.4662C23.0152 10.6279 23.0746 10.796 23.1175 10.9707C23.1601 11.1452 23.1815 11.3216 23.1815 11.5C23.1815 11.6783 23.1666 11.8571 23.137 12.0365C23.1073 12.2158 23.0544 12.3862 22.9782 12.5477C22.6877 13.1579 22.3428 13.7335 21.9435 14.2745C21.5441 14.8153 21.1061 15.3227 20.6295 15.7967C20.4011 16.0365 20.1231 16.1398 19.7952 16.1065C19.4672 16.0731 19.1963 15.9257 18.9825 15.6642C18.7688 15.4025 18.6721 15.1036 18.6925 14.7675C18.7126 14.4311 18.8369 14.143 19.0652 13.9032C19.3992 13.5482 19.7094 13.1692 19.9957 12.7662C20.2819 12.3634 20.5406 11.9413 20.7717 11.5C19.9196 9.82612 18.7131 8.49096 17.1522 7.49446C15.5912 6.49812 13.8738 5.99996 12 5.99996ZM12 19.438C9.71015 19.438 7.60956 18.8244 5.69823 17.5972C3.78706 16.37 2.28873 14.7401 1.20323 12.7075C1.10106 12.5176 1.0244 12.3224 0.973229 12.1217C0.922229 11.921 0.896729 11.7138 0.896729 11.5C0.896729 11.2861 0.918062 11.0783 0.960729 10.8765C1.00356 10.6748 1.07606 10.4754 1.17823 10.2782C1.49273 9.63987 1.8614 9.03537 2.28423 8.46471C2.70706 7.89404 3.17823 7.36337 3.69773 6.87271L1.76398 4.92821C1.55248 4.70937 1.44856 4.45071 1.45223 4.15221C1.45573 3.85354 1.56331 3.59846 1.77498 3.38696C1.98665 3.17529 2.2459 3.06946 2.55273 3.06946C2.85956 3.06946 3.11881 3.17529 3.33048 3.38696L20.401 20.4575C20.6126 20.6691 20.7203 20.9242 20.724 21.2227C20.7275 21.5214 20.6198 21.7801 20.401 21.999C20.1895 22.2105 19.9326 22.3162 19.6305 22.3162C19.3283 22.3162 19.0714 22.2105 18.8597 21.999L15.6847 18.8597C15.0921 19.0619 14.4863 19.2088 13.8675 19.3005C13.2486 19.3921 12.6261 19.438 12 19.438ZM5.42273 8.55546C4.97706 8.98879 4.57306 9.44962 4.21073 9.93796C3.84856 10.4265 3.52581 10.9471 3.24248 11.5C4.07581 13.1833 5.27523 14.5208 6.84073 15.5125C8.4064 16.5041 10.1261 17 12 17C12.2861 17 12.5687 16.9839 12.8477 16.9517C13.1267 16.9194 13.4094 16.883 13.6957 16.8425L12.7957 15.8925C12.6594 15.933 12.5267 15.961 12.3977 15.9767C12.2687 15.9922 12.1361 16 12 16C10.75 16 9.68748 15.5625 8.81248 14.6875C7.93748 13.8125 7.49998 12.75 7.49998 11.5C7.49998 11.3638 7.5054 11.2312 7.51623 11.1022C7.52706 10.9732 7.54806 10.8405 7.57923 10.7042L5.42273 8.55546Z" fill="currentColor" />
</svg>
