<svg width="24" height="24" viewBox="0 0 24 24" fill="none" xmlns="http://www.w3.org/2000/svg">
<path d="M12 16C13.25 16 14.3125 15.5625 15.1875 14.6875C16.0625 13.8125 16.5 12.75 16.5 11.5C16.5 10.25 16.0625 9.18751 15.1875 8.31251C14.3125 7.43751 13.25 7.00001 12 7.00001C10.75 7.00001 9.6875 7.43751 8.8125 8.31251C7.9375 9.18751 7.5 10.25 7.5 11.5C7.5 12.75 7.9375 13.8125 8.8125 14.6875C9.6875 15.5625 10.75 16 12 16ZM12.0025 13.9033C11.3357 13.9033 10.768 13.6698 10.2995 13.203C9.831 12.7362 9.59675 12.1693 9.59675 11.5025C9.59675 10.8357 9.83017 10.268 10.297 9.79951C10.7638 9.33101 11.3307 9.09676 11.9975 9.09676C12.6643 9.09676 13.232 9.33018 13.7005 9.79701C14.169 10.2638 14.4033 10.8307 14.4033 11.4975C14.4033 12.1643 14.1698 12.732 13.703 13.2005C13.2362 13.669 12.6693 13.9033 12.0025 13.9033ZM12 19.438C9.71017 19.438 7.61617 18.8286 5.718 17.6098C3.81984 16.3909 2.328 14.7699 1.2425 12.7468C1.13084 12.5496 1.04942 12.346 0.998253 12.136C0.947253 11.9258 0.921753 11.7138 0.921753 11.5C0.921753 11.2862 0.947253 11.0742 0.998253 10.864C1.04942 10.654 1.13084 10.4504 1.2425 10.2533C2.328 8.2301 3.81984 6.6091 5.718 5.39026C7.61617 4.17143 9.71017 3.56201 12 3.56201C14.2898 3.56201 16.3838 4.17143 18.282 5.39026C20.1802 6.6091 21.672 8.2301 22.7575 10.2533C22.8692 10.4504 22.9506 10.654 23.0018 10.864C23.0528 11.0742 23.0783 11.2862 23.0783 11.5C23.0783 11.7138 23.0528 11.9258 23.0018 12.136C22.9506 12.346 22.8692 12.5496 22.7575 12.7468C21.672 14.7699 20.1802 16.3909 18.282 17.6098C16.3838 18.8286 14.2898 19.438 12 19.438ZM12.0013 17C13.8743 17 15.5936 16.5018 17.1593 15.5055C18.7248 14.509 19.9242 13.1738 20.7575 11.5C19.9242 9.82618 18.7243 8.49101 17.158 7.49451C15.5915 6.49818 13.8718 6.00001 11.9988 6.00001C10.1258 6.00001 8.40642 6.49818 6.84075 7.49451C5.27525 8.49101 4.07584 9.82618 3.2425 11.5C4.07584 13.1738 5.27567 14.509 6.842 15.5055C8.4085 16.5018 10.1283 17 12.0013 17Z" fill="currentColor" />
</svg>
