<svg width="100%" height="100%" viewBox="0 0 500 500" fill="none" xmlns="http://www.w3.org/2000/svg">
<path d="M456.861 96.3256C465.348 107.216 476.353 130.642 464.67 138C464.67 138 444.42 143.5 437.17 145.5C429.92 147.5 411.92 152.25 409.67 152.25C407.42 152.25 394.726 151.649 385.704 141.198C366.639 119.113 341.998 102.308 314.152 92.6658C278.388 80.2814 239.472 80.4512 203.817 93.1472C168.163 105.843 137.898 130.308 118.01 162.509C98.1223 194.71 89.7987 232.726 94.4111 270.291C99.0236 307.856 116.297 342.729 143.384 369.163C170.471 395.596 205.756 412.012 243.422 415.705C281.089 419.398 318.891 410.148 350.596 389.48C367.049 378.755 381.35 365.287 392.955 349.786C402.501 337.035 394.533 319.797 379.171 315.587C299.718 293.814 200.17 258.609 200.17 225.547C200.17 215.065 207.34 209.822 219.12 207.012L268.265 229.604L267.503 218.895L235.666 204.522C240.206 204.198 244.911 204.073 249.609 204.073C267.2 204.073 296.92 212.978 329.791 226.025L435.216 198.217C445.068 195.619 455.557 197.22 464.185 202.64L469.369 205.897C474.429 209.076 474.483 216.433 469.469 219.686L413.353 256.093C410.126 258.186 410.402 262.903 413.9 264.503C435.156 274.229 479.124 293.162 487.195 310.451C504.921 354.653 443.801 428.396 396.196 459.429C348.59 490.463 291.831 504.352 235.274 498.807C178.717 493.261 125.738 468.612 85.0662 428.923C44.3948 389.233 18.4591 336.871 11.5335 280.467C4.60797 224.063 17.1058 166.982 46.9674 118.632C76.8289 70.2819 122.272 33.5484 175.807 14.4854C229.343 -4.57766 287.775 -4.83261 341.475 13.7625C387.269 29.6201 427.29 58.3791 456.861 96.3256Z" fill="currentColor" />
<path d="M289.1 361.596L328.424 316.924C330.34 314.748 329.447 311.326 326.714 310.363L270.56 290.582C268.086 289.711 265.443 291.359 265.138 293.964L260.215 336.057C258.985 346.575 264.642 356.697 274.246 361.161L279.512 363.609C282.801 365.138 286.704 364.318 289.1 361.596Z" fill="currentColor" />
</svg>
